<?xml version="1.0" encoding="utf-8"?>
<!-- Generator: Adobe Illustrator 24.0.1, SVG Export Plug-In . SVG Version: 6.00 Build 0)  -->
<svg version="1.1" id="Layer_1" xmlns="http://www.w3.org/2000/svg" xmlns:xlink="http://www.w3.org/1999/xlink" x="0px" y="0px"
	 viewBox="0 0 22.59 14.12" style="enable-background:new 0 0 22.59 14.12;" xml:space="preserve">
<style type="text/css">
	.st0{fill:#D3D3D3;}
</style>
<g>
	<path class="st0" d="M11.37,10.48c0,0.6-0.12,1.12-0.36,1.57c-0.24,0.45-0.57,0.83-0.98,1.13c-0.42,0.31-0.9,0.54-1.45,0.7
		c-0.55,0.16-1.14,0.24-1.76,0.24H0V0h7.55c0.49,0,0.93,0.11,1.33,0.32c0.4,0.21,0.74,0.49,1.01,0.83c0.28,0.34,0.49,0.72,0.65,1.15
		c0.15,0.43,0.23,0.86,0.23,1.3c0,0.69-0.17,1.34-0.52,1.94c-0.34,0.6-0.85,1.05-1.51,1.34c0.81,0.24,1.45,0.67,1.92,1.28
		C11.14,8.78,11.37,9.55,11.37,10.48z M2.74,2.35V5.9H6.4c0.46,0,0.86-0.16,1.18-0.48c0.32-0.32,0.49-0.76,0.49-1.31
		c0-0.54-0.15-0.97-0.45-1.29c-0.3-0.32-0.67-0.48-1.1-0.48H2.74z M8.61,9.96c0-0.25-0.04-0.49-0.13-0.73C8.39,9,8.28,8.8,8.13,8.63
		C7.99,8.46,7.81,8.32,7.61,8.22c-0.2-0.1-0.42-0.15-0.66-0.15H2.74v3.72h4.08c0.25,0,0.49-0.05,0.71-0.14
		c0.22-0.09,0.41-0.22,0.57-0.39c0.16-0.17,0.28-0.36,0.38-0.59C8.56,10.45,8.61,10.21,8.61,9.96z"/>
	<path class="st0" d="M17.31,14.12c-0.81,0-1.54-0.14-2.2-0.41c-1.3-0.55-2.21-1.48-2.74-2.78C12.12,10.29,12,9.63,12,8.93
		c0-0.72,0.12-1.4,0.37-2.03c0.52-1.32,1.44-2.26,2.74-2.82c0.66-0.28,1.4-0.42,2.23-0.42c0.82,0,1.56,0.14,2.21,0.42
		c2.13,0.93,3.14,3,3.04,5.24c-0.01,0.15-0.02,0.28-0.05,0.39h-7.8c0.04,0.4,0.13,0.75,0.29,1.06c0.15,0.31,0.35,0.57,0.6,0.79
		c0.24,0.22,0.52,0.39,0.83,0.5c0.31,0.12,0.63,0.17,0.96,0.17c0.51,0,1-0.13,1.45-0.38c0.46-0.25,0.77-0.58,0.93-0.99l2.22,0.62
		c-0.37,0.77-0.97,1.4-1.78,1.9C19.42,13.87,18.44,14.12,17.31,14.12z M19.94,8.03c-0.06-0.76-0.34-1.36-0.84-1.82
		C18.6,5.75,18,5.52,17.3,5.52c-0.35,0-0.67,0.06-0.97,0.18c-0.3,0.12-0.57,0.29-0.8,0.51c-0.23,0.22-0.42,0.48-0.57,0.79
		c-0.15,0.31-0.23,0.65-0.26,1.02L19.94,8.03L19.94,8.03z"/>
	<path class="st0" d="M13.92,0.67h6.75v1.68h-6.75V0.67z"/>
</g>
</svg>
