<?xml version="1.0" encoding="utf-8"?>
<!-- Generator: Adobe Illustrator 24.0.1, SVG Export Plug-In . SVG Version: 6.00 Build 0)  -->
<svg version="1.1" id="Layer_1" xmlns="http://www.w3.org/2000/svg" xmlns:xlink="http://www.w3.org/1999/xlink" x="0px" y="0px"
	 viewBox="0 0 17 17" style="enable-background:new 0 0 17 17;" xml:space="preserve">
<style type="text/css">
	.st0{fill:#D3D3D3;}
</style>
<g>
	<g>
		<path class="st0" d="M13,3.04c-0.55,0-1,0.45-1,1c0,0.55,0.45,1,1,1c0.55,0,1-0.45,1-1C14,3.48,13.55,3.04,13,3.04z"/>
		<path class="st0" d="M8.57,4.31c-2.31,0-4.19,1.88-4.19,4.19c0,2.31,1.88,4.19,4.19,4.19c2.31,0,4.19-1.88,4.19-4.19
			C12.76,6.19,10.88,4.31,8.57,4.31z M8.57,11.18c-1.48,0-2.68-1.2-2.68-2.68s1.2-2.68,2.68-2.68c1.48,0,2.68,1.2,2.68,2.68
			S10.05,11.18,8.57,11.18z"/>
		<path class="st0" d="M11.89,17H5.11C2.29,17,0,14.71,0,11.89V5.11C0,2.29,2.29,0,5.11,0h6.79C14.71,0,17,2.29,17,5.11v6.79
			C17,14.71,14.71,17,11.89,17z M5.11,1.6C3.17,1.6,1.6,3.17,1.6,5.11v6.79c0,1.93,1.57,3.51,3.51,3.51h6.79
			c1.93,0,3.51-1.57,3.51-3.51V5.11c0-1.93-1.57-3.51-3.51-3.51H5.11z"/>
	</g>
</g>
</svg>
